<?xml version="1.0" standalone="no"?>
<!DOCTYPE svg PUBLIC "-//W3C//DTD SVG 1.1//EN" "http://www.w3.org/Graphics/SVG/1.1/DTD/svg11.dtd" >
<svg xmlns="http://www.w3.org/2000/svg">
<metadata></metadata>
<defs>
<font id="rockwelldia_lightregular" horiz-adv-x="534" >
<font-face units-per-em="2048" ascent="1536" descent="-512" />
<missing-glyph horiz-adv-x="512" />
<glyph unicode="&#xfb01;" horiz-adv-x="1126" d="M51 0v113h156v743h-152v113h152v176q0 69 21.5 123t57.5 85t78 46.5t87 15.5q90 0 151.5 -53.5t81.5 -149.5l-115 -18q-17 59 -45 86t-73 27q-56 0 -85.5 -39t-29.5 -105v-194h616v-856h148v-113h-430v113h153v743h-487v-743h143v-113h-428zM803 1321q0 38 26 65t64 27 q37 0 64.5 -27t27.5 -65q0 -37 -27.5 -64.5t-64.5 -27.5q-38 0 -64 27.5t-26 64.5z" />
<glyph unicode="&#xfb02;" horiz-adv-x="1126" d="M51 0v113h156v743h-156v113h156v176q0 71 21.5 125t57.5 84.5t78 45.5t87 15q56 0 106 -24h393v-1278h150v-113h-430v113h151v1167h-168q18 -21 25 -63l-109 -15q-17 55 -45 80t-73 25q-56 0 -85.5 -39t-29.5 -105v-194h160v-113h-160v-743h143v-113h-428z" />
<glyph horiz-adv-x="2048" />
<glyph horiz-adv-x="2048" />
<glyph unicode="&#xd;" horiz-adv-x="2048" />
<glyph unicode=" "  horiz-adv-x="512" />
<glyph unicode="&#x09;" horiz-adv-x="512" />
<glyph unicode="&#xa0;" horiz-adv-x="512" />
<glyph unicode="!" d="M193 0v205h149v-205h-149zM201 958v433h133v-433l-31 -587h-70z" />
<glyph unicode="&#x22;" horiz-adv-x="643" d="M86 1188v219h129v-219l-29 -266h-71zM430 1188v219h129v-219l-29 -266h-71z" />
<glyph unicode="#" horiz-adv-x="1368" d="M145 418v104h197l80 385h-277v105h297l86 413h109l-84 -413h391l86 413h109l-84 -413h168v-105h-193l-78 -385h271v-104h-293l-88 -412h-109l86 412h-387l-88 -412h-111l89 412h-177zM451 522h393l78 385h-392z" />
<glyph unicode="$" horiz-adv-x="1062" d="M72 412h125q15 -152 85.5 -231t202.5 -93v561q-175 26 -273.5 120t-98.5 235q0 152 101 249t271 107v67h111v-67q340 -44 340 -412h-119q-6 257 -221 303v-499q203 -32 301 -125t98 -252q0 -168 -104.5 -272t-294.5 -123v-154h-111v154q-185 9 -291.5 117.5t-121.5 314.5 zM248 1020q0 -94 57 -152t180 -90v477q-111 -11 -174 -73t-63 -162zM596 90q131 19 204.5 90t73.5 185q0 212 -278 258v-533z" />
<glyph unicode="%" horiz-adv-x="1796" d="M86 1044q0 177 73.5 273t209.5 96q134 0 206 -96.5t72 -274.5t-72.5 -273t-207.5 -95t-208 96t-73 274zM193 1042q0 -292 176 -292t176 292q0 144 -44.5 219.5t-129.5 75.5q-88 0 -133 -75t-45 -220zM346 0l1012 1391h90l-1012 -1391h-90zM1147 354q0 177 74 273t209 96 t206.5 -96t71.5 -275t-72.5 -273.5t-208.5 -94.5q-134 0 -207 96t-73 274zM1253 352q0 -144 45 -218.5t132 -74.5q86 0 131 74.5t45 218.5t-44.5 219.5t-129.5 75.5q-88 0 -133.5 -75t-45.5 -220z" />
<glyph unicode="&#x26;" horiz-adv-x="1417" d="M94 422q0 150 90.5 252t261.5 168q-70 93 -102.5 155t-32.5 123q0 123 97 208t235 85q135 0 227.5 -82t92.5 -201q0 -106 -79 -186t-253 -147l323 -455q102 150 144 367h248v-113h-154q-34 -125 -69.5 -202.5t-92.5 -147.5l98 -131h218v-115h-287l-109 147 q-182 -167 -391 -167q-198 0 -331.5 126.5t-133.5 315.5zM236 436q0 -60 23.5 -119.5t65 -108.5t107.5 -79.5t143 -30.5q167 0 304 146l-363 508q-280 -107 -280 -316zM438 1130q0 -15 2.5 -29t10 -31t12.5 -28.5t20 -34.5t22 -34t29 -41.5t31 -44.5q140 52 208.5 109.5 t68.5 136.5q0 73 -57.5 121.5t-143.5 48.5q-88 0 -145.5 -49t-57.5 -124z" />
<glyph unicode="'" horiz-adv-x="425" d="M150 1188v219h129v-219l-29 -266h-72z" />
<glyph unicode="(" horiz-adv-x="737" d="M176 487q0 147 27.5 281t85 259t158 226t235.5 162v-108q-192 -116 -282.5 -310.5t-90.5 -509.5q0 -313 90.5 -507t282.5 -310v-108q-135 61 -235.5 161.5t-158 225.5t-85 258.5t-27.5 279.5z" />
<glyph unicode=")" horiz-adv-x="737" d="M55 -330q192 116 281.5 309.5t89.5 507.5q0 316 -89.5 510t-281.5 310v108q134 -61 234 -162t157.5 -226t85 -259t27.5 -281q0 -116 -16.5 -223.5t-54.5 -214.5t-95 -196.5t-143.5 -165.5t-194.5 -125v108z" />
<glyph unicode="*" horiz-adv-x="1019" d="M72 1036l41 127l151 -49q29 -33 79 -59t142 -58q-5 79 -16 148q-12 57 -29 96v156h140v-156q-20 -39 -29 -96q-9 -43 -16 -148q163 56 221 117l151 49l41 -127l-153 -51q-66 17 -238 -37q54 -78 94 -120.5t76 -55.5l92 -129l-106 -78l-92 129q-8 86 -111 219 q-53 -72 -79.5 -119.5t-31.5 -99.5l-94 -129l-104 78l92 129q37 16 72 52.5t100 123.5q-100 31 -149.5 38.5t-92.5 -1.5z" />
<glyph unicode="+" horiz-adv-x="1366" d="M143 604v111h486v485h108v-485h486v-111h-486v-485h-108v485h-486z" />
<glyph unicode="," d="M178 -182q49 4 65.5 42t18.5 140h-69v205h149v-230q0 -234 -164 -237v80z" />
<glyph unicode="-" horiz-adv-x="710" d="M68 426v113h573v-113h-573z" />
<glyph unicode="." d="M193 0v205h149v-205h-149z" />
<glyph unicode="/" horiz-adv-x="661" d="M2 -29l541 1420h114l-540 -1420h-115z" />
<glyph unicode="0" horiz-adv-x="1093" d="M90 696q0 349 117 533t340 184t341 -184t118 -533q0 -347 -118 -531.5t-341 -184.5q-222 0 -339.5 184t-117.5 532zM219 698q0 -612 328 -612q164 0 245.5 157t81.5 455q0 301 -84.5 455t-242.5 154q-162 0 -245 -156t-83 -453z" />
<glyph unicode="1" horiz-adv-x="1093" d="M301 0v113h195v1165h-195v113h324v-1278h192v-113h-516z" />
<glyph unicode="2" horiz-adv-x="1093" d="M104 0q-6 128 56 274.5t176 260.5q75 76 200.5 160.5t163.5 121.5q105 95 105 230q0 116 -71.5 188t-186.5 72q-153 0 -223 -97t-68 -284h-119q-6 116 22.5 209.5t83.5 153.5t132 92t170 32q184 0 287.5 -104t103.5 -265q0 -167 -113 -280q-44 -45 -180.5 -135.5 t-206.5 -157.5q-94 -90 -144 -190t-56 -166h595l11 336h110l-12 -451h-836z" />
<glyph unicode="3" horiz-adv-x="1093" d="M76 440h119q16 -175 112 -264.5t232 -89.5q57 0 111 18t100.5 52.5t75 94t28.5 134.5q0 68 -24 122t-64.5 87.5t-94 55t-113.5 24t-122 -5.5v114q160 -9 252 61.5t92 205.5q0 114 -70.5 186t-181.5 72q-125 0 -188.5 -78t-65.5 -209h-122q0 185 103.5 289t270.5 104 q166 0 273.5 -99t107.5 -259q0 -111 -56 -193t-161 -125v-2q129 -26 212 -112t83 -236q0 -180 -126.5 -293.5t-326.5 -113.5q-199 0 -325.5 123.5t-130.5 336.5z" />
<glyph unicode="4" horiz-adv-x="1093" d="M82 500l586 903h110v-899h223v-107h-223v-291h123v-106h-393v106h154v291h-519q-16 61 -61 103zM203 504h459v715h-5z" />
<glyph unicode="5" horiz-adv-x="1093" d="M92 406h123q21 -147 102 -233.5t218 -86.5q140 0 234.5 97.5t94.5 262.5q0 152 -85.5 245t-223.5 93q-94 0 -166 -42t-135 -128q-40 40 -98 64l61 713h694v-316h-114v193h-480l-45 -496l4 -4q62 62 142 92q73 33 162 33q181 0 298 -126.5t117 -320.5q0 -115 -40 -206.5 t-106 -147t-146 -84t-166 -28.5q-188 0 -309 115.5t-136 310.5z" />
<glyph unicode="6" horiz-adv-x="1093" d="M125 651q0 116 13.5 221.5t47.5 206t84.5 173t130.5 117t181 44.5q172 0 272.5 -106.5t108.5 -290.5h-121q-7 140 -74 215.5t-182 75.5q-90 0 -155 -44t-103 -126t-57 -185t-23 -235l4 -4q70 83 160.5 127.5t185.5 44.5q169 0 277 -123.5t108 -315.5q0 -206 -114.5 -336 t-297.5 -130q-216 0 -331 170t-115 501zM250 582q6 -238 85 -366t232 -128q131 0 212 94.5t81 257.5q0 89 -29 162.5t-93.5 121.5t-155.5 48q-85 0 -172 -49.5t-160 -140.5z" />
<glyph unicode="7" horiz-adv-x="1093" d="M129 1067v324h825v-105q-192 -258 -292.5 -574t-88.5 -599h164v-113h-471v113h176q-11 261 87.5 583t289.5 572h-575v-201h-115z" />
<glyph unicode="8" horiz-adv-x="1093" d="M82 385q0 129 72.5 220t203.5 128v2q-109 34 -171 117t-62 197q0 164 118 264t304 100q185 0 302.5 -101.5t117.5 -262.5q0 -114 -61.5 -197t-170.5 -117v-4q131 -35 204 -126t73 -220q0 -180 -128.5 -292.5t-332.5 -112.5q-215 0 -342 114t-127 291zM213 391 q0 -133 88.5 -219t245.5 -86q147 0 240.5 82.5t93.5 222.5q0 121 -85 205t-251 84q-152 0 -242 -78.5t-90 -210.5zM248 1042q0 -120 80.5 -190t218.5 -70t218.5 70t80.5 190q0 71 -27.5 124.5t-73 83t-95.5 43.5t-103 14q-134 0 -216.5 -73.5t-82.5 -191.5z" />
<glyph unicode="9" horiz-adv-x="1093" d="M104 946q0 207 115.5 337t298.5 130q215 0 331 -170t116 -502q0 -116 -13.5 -220.5t-47.5 -205t-85 -173.5t-131.5 -117.5t-181.5 -44.5q-171 0 -271.5 107t-109.5 292h121q7 -141 74.5 -217t183.5 -76q323 0 336 592l-4 2q-70 -81 -161.5 -125.5t-185.5 -44.5 q-167 0 -276 123t-109 313zM229 952q0 -138 72 -233.5t205 -95.5q86 0 172 49.5t160 140.5q-6 236 -85.5 364t-232.5 128q-130 0 -210.5 -94.5t-80.5 -258.5z" />
<glyph unicode=":" d="M193 0v205h149v-205h-149zM193 764v205h149v-205h-149z" />
<glyph unicode=";" d="M178 -182q49 4 65.5 42t18.5 140h-69v205h149v-230q0 -234 -164 -237v80zM193 764v205h149v-205h-149z" />
<glyph unicode="&#x3c;" horiz-adv-x="1366" d="M143 610v99l1080 458v-120l-932 -388l932 -385v-120z" />
<glyph unicode="=" horiz-adv-x="1366" d="M143 375v108h1080v-108h-1080zM143 842v108h1080v-108h-1080z" />
<glyph unicode="&#x3e;" horiz-adv-x="1366" d="M143 154v120l932 385l-932 388v120l1080 -458v-99z" />
<glyph unicode="?" horiz-adv-x="929" d="M61 1016q-4 124 49 215.5t141.5 136.5t197.5 45q177 0 288 -107.5t111 -277.5q0 -67 -22.5 -130.5t-66.5 -117.5t-118.5 -85.5t-167.5 -28.5l-24 -289h-64l-33 403l15 6q50 -5 100 -5.5t95.5 16.5t81 45t56.5 78t21 116q0 116 -76.5 191.5t-195.5 75.5q-124 0 -197 -77.5 t-70 -209.5h-121zM338 0v205h149v-205h-149z" />
<glyph unicode="@" horiz-adv-x="1755" d="M29 502q0 139 34 270.5t107 250t177 207.5t254 141t329 52q154 0 283.5 -42.5t218.5 -114t151.5 -167.5t91.5 -201.5t29 -217.5q0 -145 -50.5 -275.5t-130 -217.5t-174.5 -138t-186 -51q-164 0 -131 178l-4 4q-70 -88 -155 -134t-175 -46q-151 0 -250.5 122t-99.5 306 q0 67 15.5 138.5t45 141t74.5 131.5t100 109.5t127 75t150 27.5q195 0 303 -191l35 164h141l-172 -803q-23 -110 47 -110q39 0 89 24.5t103 74t97 115t72.5 158t28.5 193.5q0 90 -22 177.5t-73.5 173t-128 150t-195 104.5t-263.5 40q-171 0 -318.5 -61t-252 -168 t-163.5 -259.5t-59 -328.5q0 -230 97 -405t280.5 -272t429.5 -97q452 0 682 309h125q-122 -193 -324.5 -300.5t-482.5 -107.5q-208 0 -379.5 64t-286.5 179t-178 276t-63 352zM492 420q0 -134 69 -222.5t174 -88.5q64 0 124.5 35.5t105.5 94.5t79.5 131.5t52 149t17.5 144.5 q0 124 -70 203t-180 79q-75 0 -139 -38.5t-105.5 -97t-71.5 -131t-43 -138.5t-13 -121z" />
<glyph unicode="A" horiz-adv-x="1366" d="M-39 0v115h174l408 1167h-172v109h628v-109h-172l412 -1167h168v-115h-483v115h174l-142 403h-544l-138 -403h179v-115h-492zM451 629h469l-226 671h-16z" />
<glyph unicode="B" horiz-adv-x="1163" d="M39 0v115h176v1161h-176v115h557q92 0 164.5 -21t119 -55t77 -81t43 -95.5t12.5 -102.5q0 -217 -195 -297v-4q129 -38 197.5 -125t68.5 -213q0 -53 -12 -103.5t-46 -105t-86 -95t-140 -67t-201 -26.5h-559zM354 115h238q176 0 263 76.5t87 203.5q0 44 -11 82.5t-37 74 t-66 61t-101.5 40.5t-140.5 15h-232v-553zM354 782h213q148 0 225.5 70.5t77.5 179.5q0 47 -15 88t-47.5 77.5t-93 57.5t-143.5 21h-217v-494z" />
<glyph unicode="C" horiz-adv-x="1542" d="M117 692q0 168 54.5 305.5t148 227.5t217 139t264.5 49q150 0 280.5 -57t218.5 -160h5v195h116v-445h-118q-24 107 -103 187t-181 118.5t-210 38.5q-239 0 -393 -166t-154 -424q0 -260 156.5 -429t398.5 -169q190 0 327 105t208 315l114 -63q-69 -229 -240.5 -354 t-416.5 -125q-204 0 -361.5 89.5t-244 251.5t-86.5 371z" />
<glyph unicode="D" horiz-adv-x="1462" d="M20 0v115h193v1161h-193v115h580q197 0 339.5 -44t238.5 -145q91 -94 137.5 -223t46.5 -270q0 -339 -197 -539q-89 -89 -224.5 -129.5t-336.5 -40.5h-584zM352 115h258q321 0 461 147q150 159 150 443q0 122 -37 231t-111 184q-84 86 -196.5 121t-268.5 35h-256v-1161z " />
<glyph unicode="E" horiz-adv-x="1249" d="M37 0v115h180v1161h-180v115h1126v-359h-116v244h-691v-506h562v-115h-562v-540h691v250h116v-365h-1126z" />
<glyph unicode="F" horiz-adv-x="1099" d="M33 0v115h178v1161h-178v115h1063v-361h-115v246h-629v-502h496v-115h-496v-544h183v-115h-502z" />
<glyph unicode="G" horiz-adv-x="1628" d="M100 696q0 146 49.5 276.5t138 228t220.5 155t289 57.5q158 0 292.5 -60.5t231.5 -174.5h2v213h117v-455h-117q-46 154 -192 254t-326 100q-244 0 -401.5 -166t-157.5 -424q0 -262 163 -430t418 -168q90 0 177.5 25.5t164.5 75t130 133t65 188.5h-338v115h494v-7 q0 -129 -37 -236q-38 -111 -103 -187.5t-154 -129.5t-190 -77.5t-211 -24.5q-169 0 -308.5 59t-229.5 158.5t-138.5 229t-48.5 272.5z" />
<glyph unicode="H" horiz-adv-x="1419" d="M45 0v115h166v1161h-166v115h477v-115h-172v-490h719v490h-174v115h481v-115h-168v-1161h168v-115h-481v115h174v557h-719v-557h172v-115h-477z" />
<glyph unicode="I" horiz-adv-x="593" d="M57 0v115h168v1161h-168v115h478v-115h-170v-1161h170v-115h-478z" />
<glyph unicode="J" horiz-adv-x="577" d="M-121 -287q87 -20 146 -20q114 0 157 51.5t43 157.5v1374h-200v115h534v-115h-192v-1374q0 -93 -26.5 -160t-75 -104.5t-108 -54.5t-134.5 -17q-76 0 -144 22v125z" />
<glyph unicode="K" horiz-adv-x="1216" d="M31 0v115h180v1161h-180v115h510v-115h-191v-1161h185v-115h-504zM365 733l540 543h-160v115h472v-115h-150l-526 -537l551 -624h147v-115h-514v115h176z" />
<glyph unicode="L" horiz-adv-x="1050" d="M31 0v115h188v1161h-188v115h512v-115h-185v-1161h537v463h131v-578h-995z" />
<glyph unicode="M" horiz-adv-x="1761" d="M41 0v115h178v1161h-178v115h389l397 -979q34 -78 54 -150h4q13 61 43 137l399 992h393v-115h-170v-1161h170v-115h-475v115h168v1183h-4l-524 -1302h-27l-518 1302h-4v-1183h162v-115h-457z" />
<glyph unicode="N" horiz-adv-x="1456" d="M16 0v115h191v1161h-191v115h369l745 -1188h5v1073h-195v115h500v-115h-189v-1292h-137l-786 1253h-4v-1122h196v-115h-504z" />
<glyph unicode="O" horiz-adv-x="1611" d="M102 696q0 154 52.5 287t145 227.5t224 148.5t283.5 54q201 0 361.5 -92t250.5 -256t90 -369q0 -153 -52.5 -286t-144 -227.5t-220 -148.5t-275.5 -54q-208 0 -371 90.5t-253.5 254t-90.5 371.5zM248 696q0 -257 159 -425.5t400 -168.5t399 168.5t158 425.5t-158 425.5 t-399 168.5t-400 -168.5t-159 -425.5z" />
<glyph unicode="P" horiz-adv-x="1142" d="M35 0v115h182v1161h-182v115h606q122 0 214 -35t144 -95t76.5 -131t24.5 -153q0 -180 -109 -289q-122 -125 -364 -125h-271v-448h187v-115h-508zM356 676h240q188 0 275 75t87 220q0 150 -78.5 227.5t-258.5 77.5h-265v-600z" />
<glyph unicode="Q" horiz-adv-x="1611" d="M102 698q0 205 89.5 368.5t250.5 255t363 91.5t363 -91.5t251 -255.5t90 -370q0 -150 -52.5 -282t-140.5 -224t-205.5 -147t-246.5 -59v-2q43 -14 122.5 -53t142.5 -57q35 -9 70 -9l56 6l-47 -117q-23 -3 -46 -3q-39 0 -76 9q-60 13 -107.5 38t-93 51t-100.5 45.5 t-111 19.5q-102 0 -172 -55l-47 67q76 68 194 74v4q-254 55 -400.5 244t-146.5 452zM248 700q0 -167 69.5 -303t197.5 -215.5t290 -79.5q239 0 399 171t160 427q0 126 -42.5 235.5t-116 187.5t-177.5 122.5t-223 44.5q-159 0 -287 -77t-199 -212t-71 -301z" />
<glyph unicode="R" horiz-adv-x="1189" d="M12 0v115h201v1161h-201v115h672q193 0 294 -97.5t101 -251.5q0 -137 -80.5 -226t-230.5 -118l270 -583h176v-115h-270l-313 682h-279v-567h191v-115h-531zM352 797h275q163 0 237 66.5t74 178.5q0 109 -73.5 171.5t-200.5 62.5h-312v-479z" />
<glyph unicode="S" horiz-adv-x="1103" d="M84 0v483h115v-65q17 -136 123.5 -228t250.5 -92q131 0 219.5 78.5t88.5 200.5q0 68 -31.5 117.5t-81 77t-118.5 52t-135.5 40.5t-141.5 44t-127 62q-160 94 -160 289q0 156 115 255t291 99q101 0 191.5 -39t152.5 -108h4v127h112v-387h-112v47q-15 100 -115.5 169.5 t-232.5 69.5q-121 0 -200 -64.5t-79 -162.5q0 -119 113 -184q51 -33 147.5 -59.5t198.5 -56.5t168 -71q182 -107 182 -321q0 -167 -126.5 -280t-315.5 -113q-116 0 -217 48.5t-162 135.5h-2v-164h-115z" />
<glyph unicode="T" horiz-adv-x="1173" d="M31 928v463h1112v-463h-115v348h-371v-1161h189v-115h-516v115h188v1161h-371v-348h-116z" />
<glyph unicode="U" horiz-adv-x="1339" d="M12 1276v115h490v-115h-174v-868q0 -156 89 -233t247 -77q171 0 258.5 74t87.5 236v868h-172v115h489v-115h-178v-868q0 -105 -33 -185t-82 -125t-115.5 -72.5t-123 -36.5t-115.5 -9q-109 0 -197 24.5t-155 75t-103.5 134.5t-36.5 196v866h-176z" />
<glyph unicode="V" horiz-adv-x="1372" d="M-35 1276v115h492v-115h-170l415 -1090l402 1090h-168v115h473v-115h-178l-475 -1290h-123l-490 1290h-178z" />
<glyph unicode="W" horiz-adv-x="1970" d="M-31 1276v115h482v-115h-170l311 -1086h4l283 1086h-164v115h555v-115h-168l299 -1086h4l301 1086h-174v115h467v-115h-174l-369 -1290h-119l-352 1271h-4l-336 -1271h-121l-381 1290h-174z" />
<glyph unicode="X" horiz-adv-x="1343" d="M27 0v115h190l375 585l-375 576h-188v115h508v-115h-164l291 -455l294 455h-167v115h483v-115h-180l-359 -557l391 -604h193v-115h-528v115h178l-307 481l-308 -481h178v-115h-505z" />
<glyph unicode="Y" horiz-adv-x="1259" d="M-35 1276v115h516v-115h-180l346 -533l340 533h-178v115h485v-115h-172l-415 -647v-514h196v-115h-528v115h190v514l-422 647h-178z" />
<glyph unicode="Z" horiz-adv-x="1136" d="M53 0v115l826 1161h-670v-244h-113v359h953v-109l-828 -1167h735v266h115v-381h-1018z" />
<glyph unicode="[" horiz-adv-x="720" d="M233 -414v1805h449v-107h-320v-1591h320v-107h-449z" />
<glyph unicode="\" horiz-adv-x="661" d="M2 1391h115l540 -1420h-114z" />
<glyph unicode="]" horiz-adv-x="720" d="M39 -307h319v1591h-319v107h448v-1805h-448v107z" />
<glyph unicode="^" horiz-adv-x="1241" d="M162 823l428 568h63l428 -568h-129l-329 439l-334 -439h-127z" />
<glyph unicode="_" horiz-adv-x="1024" d="M-12 -154h1048v-102h-1048v102z" />
<glyph unicode="`" horiz-adv-x="681" d="M154 1415h159l189 -317h-92z" />
<glyph unicode="a" horiz-adv-x="1056" d="M100 276q0 132 101.5 218t255.5 86q138 0 286 -80v198q0 199 -245 199q-199 0 -275 -152l-106 27q57 117 152 170t243 53q185 0 273.5 -75.5t88.5 -204.5v-602h160v-113h-284v133q-178 -147 -347 -147q-126 0 -214.5 84.5t-88.5 205.5zM229 272q0 -82 57 -135t146 -53 q78 0 165.5 41.5t145.5 107.5v160q-142 88 -268 88q-109 0 -177.5 -58.5t-68.5 -150.5z" />
<glyph unicode="b" horiz-adv-x="1275" d="M35 0v113h174v1165h-174v113h303v-603h4q135 207 375 207q206 0 339.5 -139.5t133.5 -357.5q0 -223 -135 -367.5t-344 -144.5q-241 0 -369 190h-4v-176h-303zM338 489q0 -173 101 -284t259 -111q157 0 257 113t100 293q0 174 -102 279.5t-251 105.5q-157 0 -260.5 -113 t-103.5 -283z" />
<glyph unicode="c" horiz-adv-x="1050" d="M80 477q0 217 135 363.5t334 146.5q187 0 297 -129h4v111h111v-369h-111q-6 122 -90 197q-80 71 -205 71q-151 0 -245.5 -106.5t-94.5 -276.5q0 -178 96 -287.5t252 -109.5q228 0 324 221l106 -47q-57 -139 -169 -215t-261 -76q-144 0 -255 68.5t-169.5 183t-58.5 254.5z " />
<glyph unicode="d" horiz-adv-x="1232" d="M78 485q0 218 135.5 364t337.5 146q115 0 209.5 -52.5t159.5 -149.5h2v485h-187v113h318v-1278h176v-113h-307v176h-2q-138 -190 -365 -190q-97 0 -184 35.5t-152 99t-103 158t-38 206.5zM205 487q0 -169 102 -281t256 -112q159 0 260 112t101 286q0 168 -104.5 280.5 t-260.5 112.5q-149 0 -251.5 -114.5t-102.5 -283.5z" />
<glyph unicode="e" horiz-adv-x="1142" d="M80 483q0 224 143 368t355 144q214 0 351 -147t140 -393h-854q4 -161 115.5 -268t271.5 -107q107 0 201.5 51t159.5 145l106 -49q-72 -120 -198.5 -188t-278.5 -68q-224 0 -368 144t-144 368zM217 559h719q-26 153 -124 241.5t-241 88.5q-138 0 -233 -89t-121 -241z" />
<glyph unicode="f" d="M53 0v113h148v743h-148v113h148v176q0 69 21.5 123t57 85t77.5 46.5t87 15.5q90 0 152 -53.5t82 -149.5l-115 -18q-17 59 -45.5 86t-73.5 27q-56 0 -85 -39t-29 -105v-194h182v-113h-182v-743h188v-113h-465z" />
<glyph unicode="g" horiz-adv-x="1232" d="M78 473q0 214 139.5 362t341.5 148q112 0 206.5 -52t162.5 -151h2v189h307v-113h-178v-876q0 -98 -33 -176t-84 -126t-118.5 -80t-131.5 -44.5t-127 -12.5q-226 0 -379 135l84 88q127 -106 308 -106q45 0 90 8.5t93.5 30.5t85 56t60 90.5t23.5 127.5v213h-4 q-55 -95 -154.5 -148.5t-218.5 -53.5q-204 0 -339.5 140t-135.5 351zM211 477q0 -169 99.5 -277t256.5 -108t261 111t104 278q0 163 -105.5 275t-257.5 112q-154 0 -256 -112t-102 -279z" />
<glyph unicode="h" horiz-adv-x="1126" d="M31 0v113h176v1165h-176v113h305v-549q178 153 354 153q120 0 192 -65.5t72 -200.5v-616h160v-113h-463v113h174v589q0 177 -155 177q-72 0 -161 -42t-173 -114v-610h162v-113h-467z" />
<glyph unicode="i" d="M49 0v113h166v743h-166v113h295v-856h162v-113h-457zM166 1321q0 38 26.5 65t63.5 27t64.5 -27t27.5 -65q0 -37 -27.5 -64.5t-64.5 -27.5t-63.5 27.5t-26.5 64.5z" />
<glyph unicode="j" horiz-adv-x="520" d="M-70 -303q49 -6 86 -6q110 0 159.5 52t49.5 177v936h-172v113h301v-1053q0 -337 -325 -340q-52 0 -99 8v113zM174 1321q0 38 26.5 65t63.5 27q38 0 65 -27t27 -65q0 -37 -27 -64.5t-65 -27.5q-37 0 -63.5 27.5t-26.5 64.5z" />
<glyph unicode="k" horiz-adv-x="1095" d="M33 0v113h176v1165h-176v113h307v-875l469 338v4h-150v111h439v-111h-131l-471 -346l444 -399h170v-113h-221l-549 496v-383h168v-113h-475z" />
<glyph unicode="l" horiz-adv-x="520" d="M27 0v113h174v1165h-174v113h303v-1278h168v-113h-471z" />
<glyph unicode="m" horiz-adv-x="1740" d="M37 0v113h172v743h-168v113h297v-144q178 158 354 158q90 0 153 -43.5t89 -122.5q190 166 371 166q118 0 184.5 -68t66.5 -196v-606h160v-113h-463v113h174v587q0 168 -147 168q-77 0 -163.5 -42.5t-168.5 -120.5v-592h168v-113h-471v113h174v587q0 81 -37 123.5 t-108 42.5q-78 0 -155.5 -37.5t-180.5 -123.5v-592h162v-113h-463z" />
<glyph unicode="n" horiz-adv-x="1110" d="M25 856v113h305v-142q194 156 356 156q114 0 187 -68.5t73 -189.5v-612h152v-113h-455v113h174v571q0 182 -149 182q-73 0 -164 -42.5t-174 -116.5v-594h159v-113h-462v113h174v743h-176z" />
<glyph unicode="o" horiz-adv-x="1142" d="M82 483q0 218 140 365t349 147t349.5 -147t140.5 -365t-140.5 -365t-349.5 -147t-349 147t-140 365zM217 483q0 -169 100.5 -281t253.5 -112q152 0 254.5 112.5t102.5 280.5q0 169 -102.5 281.5t-254.5 112.5q-153 0 -253.5 -112.5t-100.5 -281.5z" />
<glyph unicode="p" horiz-adv-x="1232" d="M0 -322h176v1178h-162v113h293v-191h4q57 97 153.5 151t211.5 54q203 0 338 -143t135 -359q0 -222 -135 -366t-342 -144q-117 0 -210.5 52t-152.5 149h-2v-494h178v-112h-485v112zM303 479q0 -171 101.5 -281t259.5 -110q159 0 258.5 109.5t99.5 285.5q0 169 -102.5 278 t-262.5 109q-155 0 -254.5 -110t-99.5 -281z" />
<glyph unicode="q" horiz-adv-x="1228" d="M82 479q0 217 134.5 360.5t338.5 143.5q113 0 209 -53.5t156 -149.5h4v189h303v-113h-174v-1178h178v-112h-486v112h179v496h-4q-119 -203 -361 -203q-209 0 -343 142.5t-134 365.5zM209 479q0 -174 99.5 -282.5t258.5 -108.5q157 0 259 110.5t102 280.5t-100 280.5 t-255 110.5q-161 0 -262.5 -109.5t-101.5 -281.5z" />
<glyph unicode="r" horiz-adv-x="823" d="M45 856v113h305v-234h4q45 119 142 183t227 67q60 0 72 -2v-127h-58q-90 -1 -156 -19t-108 -49t-67 -79t-34.5 -102t-9.5 -126v-368h201v-113h-516v113h184v743h-186z" />
<glyph unicode="s" horiz-adv-x="923" d="M80 0v334h115v-31q12 -99 88 -157t194 -58q110 0 180 48.5t70 125.5q0 53 -30 86t-82.5 50t-109 27.5t-126 28.5t-117.5 44q-143 65 -143 215q0 117 89 193.5t224 76.5q163 0 256 -109h4v95h111v-320h-111q0 6 -1 24t-1 23q-25 84 -92.5 132.5t-161.5 48.5 q-97 0 -147.5 -49t-50.5 -113q0 -49 31.5 -80t86.5 -46t114 -25.5t129 -28t116 -43.5q135 -73 135 -222q0 -129 -101 -206.5t-268 -77.5q-193 0 -284 116h-2v-102h-115z" />
<glyph unicode="t" horiz-adv-x="555" d="M20 856v113h160v198l129 109v-307h197v-113h-197v-645q1 -84 39 -104q15 -8 43 -8q43 0 115 18v-115q-77 -22 -137 -22q-189 0 -189 190v686h-160z" />
<glyph unicode="u" horiz-adv-x="1122" d="M33 856v113h291v-707q0 -78 37 -120t110 -42q79 0 171.5 44t166.5 118v594h-170v113h299v-856h166v-113h-295v131q-177 -145 -365 -145q-117 0 -183 67t-66 187v616h-162z" />
<glyph unicode="v" horiz-adv-x="1079" d="M-4 856v113h424v-113h-131l184 -491q59 -163 76 -234h4q33 123 59 191l199 534h-135v113h407v-113h-149l-324 -870h-116l-336 870h-162z" />
<glyph unicode="w" horiz-adv-x="1548" d="M4 856v113h358v-113h-116l139 -453q66 -228 74 -272h4q17 97 72 277l143 448h-111v113h394v-113h-107l125 -399q16 -53 47 -170t39 -162h4q2 77 84 313l137 418h-129v113h381v-113h-133l-281 -870h-120l-242 802h-4l-238 -802h-125l-270 870h-125z" />
<glyph unicode="x" horiz-adv-x="1099" d="M35 0v113h135l307 387l-295 356h-127v113h385v-113h-116l223 -270l217 270h-102v113h382v-113h-139l-287 -356l324 -387h123v-113h-387v113h123l-254 303l-236 -303h127v-113h-403z" />
<glyph unicode="y" horiz-adv-x="1105" d="M8 856v113h436v-113h-145l270 -672l256 672h-147v113h420v-113h-146l-491 -1290h-285v112h201l131 347l-340 831h-160z" />
<glyph unicode="z" horiz-adv-x="964" d="M76 0v111l661 747h-508v-233h-104v344h760v-113l-664 -745h555v243h109v-354h-809z" />
<glyph unicode="{" horiz-adv-x="681" d="M88 410v139q197 0 197 295v227q0 157 68 238t192 84h53v-121q-23 0 -29 -2q-67 -2 -98.5 -21t-45 -69.5t-13.5 -157.5v-141q0 -167 -45 -260.5t-156 -141.5q112 -48 156.5 -141t44.5 -260v-141q0 -106 13.5 -156.5t44.5 -70t97 -21.5q6 -2 31 -2v-121h-37 q-129 -3 -202.5 77.5t-73.5 243.5v228q0 295 -197 295z" />
<glyph unicode="|" horiz-adv-x="1032" d="M457 -453v1844h118v-1844h-118z" />
<glyph unicode="}" horiz-adv-x="681" d="M84 -313q25 0 31 2q66 2 97 21.5t44.5 70t13.5 156.5v141q0 167 44.5 260t156.5 141q-111 46 -156 140t-45 262v141q0 104 -13 154.5t-43.5 70.5t-94.5 23q-6 2 -35 2v121h53q124 -3 192 -84t68 -238v-227q0 -297 197 -297v-137q-197 0 -197 -295v-228 q0 -158 -68.5 -238.5t-191.5 -82.5q-8 -2 -26.5 -2t-26.5 2v121z" />
<glyph unicode="~" horiz-adv-x="1304" d="M121 586v135q148 121 285 121q40 0 89 -12t82 -25t89 -37q130 -59 181 -71q32 -7 58 -7q58 0 120 29.5t159 103.5v-137q-84 -66 -150 -92q-64 -27 -131 -27q-42 0 -92.5 13t-79.5 25t-88 38q-55 26 -85.5 38.5t-75.5 25t-81 12.5q-65 0 -121 -27t-159 -106z" />
<glyph unicode="&#xa1;" d="M193 764v205h149v-205h-149zM201 8l32 590h70l31 -590v-430h-133v430z" />
<glyph unicode="&#xa2;" horiz-adv-x="1050" d="M84 477q0 81 22 157t60.5 135.5t91.5 107.5t115.5 73.5t131.5 33.5t140 -13l117 413h78l-123 -432q80 -28 131 -94h4v111h111v-369h-111q-6 91 -46.5 150t-121.5 94l-209 -746q137 -27 246 24.5t170 186.5l104 -47q-66 -162 -214.5 -240t-338.5 -36l-118 -422h-80 l129 444q-131 54 -210 180.5t-79 288.5zM217 485q0 -121 52 -215.5t141 -140.5l202 735q-93 13 -170 -14.5t-125 -83t-74 -128t-26 -153.5z" />
<glyph unicode="&#xa3;" horiz-adv-x="1079" d="M82 162q0 79 57 132.5t142 53.5q77 0 159 -53q24 137 -57 334h-285v110h246q-100 207 -100 355q0 145 97 232t255 87q167 0 260.5 -92t95.5 -258h-125q-2 109 -57.5 176.5t-169.5 67.5q-101 0 -163 -55.5t-62 -147.5q0 -109 102 -365h264v-110h-229q64 -182 16 -389 q53 -43 75 -60t60 -41.5t66.5 -33.5t58.5 -9q147 0 156 223h94q1 -158 -67 -248.5t-180 -90.5q-72 0 -144.5 38.5t-157.5 118.5q-85 -157 -221 -157q-82 0 -134 51t-52 131zM164 160q0 -41 28.5 -69t71.5 -28q88 0 152 134q-68 65 -140 65q-47 0 -79.5 -29.5t-32.5 -72.5z " />
<glyph unicode="&#xa4;" horiz-adv-x="1366" d="M205 295l127 129q-94 131 -94 276q0 75 21.5 138t72.5 133l-127 129l76 78l129 -131q75 53 137 74.5t137 21.5q76 0 139 -22t133 -74l131 131l74 -78l-129 -129q96 -122 96 -275q0 -62 -23 -137t-73 -135l129 -129l-74 -76l-131 129q-122 -94 -276 -94q-150 0 -270 94 l-129 -129zM348 698q0 -138 98 -237t236 -99t237 99t99 237q0 139 -99 237.5t-237 98.5t-236 -98.5t-98 -237.5z" />
<glyph unicode="&#xa5;" horiz-adv-x="1181" d="M-6 1276v115h516v-115h-180l116 -219h320l115 219h-179v115h484v-115h-172l-113 -219h279v-99h-336l-142 -262h478v-98h-518v-483h196v-115h-528v115h192v483h-520v98h475l-139 262h-336v99h287l-119 219h-176zM494 958l108 -215l109 215h-217z" />
<glyph unicode="&#xa6;" horiz-adv-x="1032" d="M457 303h118v-756h-118v756zM457 637v754h118v-754h-118z" />
<glyph unicode="&#xa7;" horiz-adv-x="919" d="M37 541q0 83 43 151t141 142q-69 46 -107 114.5t-38 149.5q0 134 102 224.5t258 90.5q54 0 105 -10.5t100.5 -36.5t86.5 -65t61 -99.5t26 -136.5h-121q-6 118 -79 180t-183 62q-101 0 -167 -56.5t-66 -144.5q0 -65 37.5 -115.5t98 -83.5t133 -62.5t145 -62t133 -71.5 t98 -100.5t37.5 -141.5q0 -87 -48 -165.5t-135 -133.5q69 -41 107.5 -108.5t38.5 -147.5q0 -146 -101 -237t-264 -91q-166 0 -268 100.5t-100 258.5h125q0 -110 68.5 -179t178.5 -69q108 0 175 61t67 150q0 60 -38 107t-98.5 79t-134 61.5t-147 63t-134 74t-98.5 104 t-38 144.5zM158 565q0 -48 21 -88.5t53 -67.5t81.5 -53.5t94.5 -45t104.5 -44t99.5 -47.5q150 93 150 227q0 46 -17 82t-43.5 60.5t-73.5 49t-91 42t-113 46.5t-123 56q-143 -91 -143 -217z" />
<glyph unicode="&#xa8;" horiz-adv-x="681" d="M82 1253q0 34 23 58t57 24q35 0 58.5 -24t23.5 -58t-23.5 -58t-58.5 -24q-34 0 -57 24t-23 58zM438 1253q0 34 23.5 58t58.5 24q34 0 57 -24t23 -58t-23 -58t-57 -24q-35 0 -58.5 24t-23.5 58z" />
<glyph unicode="&#xa9;" horiz-adv-x="1609" d="M43 729q0 155 60 296.5t162 243.5t242.5 162t295.5 60t296.5 -60t243.5 -162t162 -243.5t60 -296.5t-60 -296t-162 -243t-243.5 -162.5t-296.5 -60.5t-295.5 60.5t-242.5 162.5t-162 243t-60 296zM145 729q0 -133 52 -255t140 -210t210 -140t256 -52q133 0 255 52 t210 140t140 210t52 255q0 134 -52 256t-140 210t-210 139.5t-255 51.5q-135 0 -256.5 -51.5t-209.5 -139.5t-140 -210t-52 -256zM422 731q0 81 25 155t72.5 132.5t123.5 93.5t170 35q225 0 328 -223l-103 -29q-69 162 -225 162q-123 0 -199.5 -88t-76.5 -232 q0 -155 72.5 -250.5t193.5 -95.5q84 0 150 49.5t100 153.5l98 -35q-19 -71 -56.5 -124.5t-86 -82.5t-98.5 -43t-103 -14q-171 0 -278 124t-107 312z" />
<glyph unicode="&#xaa;" horiz-adv-x="688" d="M70 983q0 78 65.5 129t165.5 51q94 0 186 -49v115q0 125 -159 125q-128 0 -178 -92l-72 18q39 68 100.5 100.5t155.5 32.5q118 0 177.5 -43t59.5 -141v-346h103v-68h-182v80q-117 -88 -224 -88q-85 0 -141.5 50.5t-56.5 125.5zM152 979q0 -50 37.5 -81.5t95.5 -31.5 q51 0 107.5 25t94.5 65v97q-91 51 -174 51q-71 0 -116 -35t-45 -90z" />
<glyph unicode="&#xab;" horiz-adv-x="966" d="M57 487l310 490h135l-307 -490l307 -487h-135zM492 487l309 490h135l-307 -490l307 -487h-135z" />
<glyph unicode="&#xac;" horiz-adv-x="1366" d="M143 850v111h1080v-599h-109v488h-971z" />
<glyph unicode="&#xad;" horiz-adv-x="710" d="M68 426v113h573v-113h-573z" />
<glyph unicode="&#xae;" horiz-adv-x="1609" d="M43 729q0 155 60 296.5t162 243.5t242.5 162t295.5 60t296.5 -60t243.5 -162t162 -243.5t60 -296.5t-60 -296t-162 -243t-243.5 -162.5t-296.5 -60.5t-295.5 60.5t-242.5 162.5t-162 243t-60 296zM145 729q0 -133 52 -255t140 -210t210 -140t256 -52q133 0 255 52 t210 140t140 210t52 255q0 134 -52 256t-140 210t-210 139.5t-255 51.5q-135 0 -256.5 -51.5t-209.5 -139.5t-140 -210t-52 -256zM489 317v805h342q131 0 203 -59t72 -156q0 -93 -65.5 -157t-172.5 -68v-4q61 -23 99 -58.5t82 -117.5q0 -1 39 -77t53 -108h-131q-8 20 -32 68 t-28 57q-71 140 -127.5 182t-167.5 42h-53v-349h-113zM602 756h148q124 0 178.5 34t54.5 109q0 73 -49 104t-170 31h-162v-278z" />
<glyph unicode="&#xaf;" horiz-adv-x="681" d="M23 1219v73h636v-73h-636z" />
<glyph unicode="&#xb0;" horiz-adv-x="811" d="M113 1120q0 122 85.5 207.5t207.5 85.5q121 0 206.5 -85.5t85.5 -207.5t-85.5 -208.5t-206.5 -86.5t-207 86.5t-86 208.5zM201 1120q0 -81 58.5 -143t146.5 -62q82 0 143 59t61 146q0 31 -13 65.5t-37 66t-64.5 52.5t-89.5 21q-88 0 -146.5 -61.5t-58.5 -143.5z" />
<glyph unicode="&#xb1;" horiz-adv-x="1366" d="M143 -41v111h1080v-111h-1080zM143 768v109h486v485h108v-485h486v-109h-486v-485h-108v485h-486z" />
<glyph unicode="&#xb2;" horiz-adv-x="667" d="M51 680q0 87 37 154t105 129q39 36 94.5 70.5t91 54.5t62 53t26.5 76q0 60 -39.5 94.5t-105.5 34.5q-79 0 -121 -49t-35 -146h-94q-13 119 58.5 190.5t191.5 71.5q110 0 176.5 -53.5t66.5 -142.5q0 -49 -19 -86t-53.5 -63t-72 -47t-86 -51.5t-82.5 -62.5 q-82 -75 -100 -153h329l4 168h90l-8 -242h-516z" />
<glyph unicode="&#xb3;" horiz-adv-x="667" d="M51 918h94q9 -88 58.5 -133.5t134.5 -45.5q78 0 127 40t49 104q0 63 -52.5 103.5t-148.5 37.5q-23 0 -47 -4v72q10 -2 45 -2q77 1 118.5 38t41.5 93q0 55 -38.5 90t-100.5 35q-67 0 -102 -38t-35 -110h-99q1 100 63.5 157.5t168.5 57.5t172.5 -54t66.5 -140 q0 -106 -104 -158q149 -52 149 -178q0 -93 -78.5 -153t-199.5 -60q-128 0 -204 66.5t-79 181.5z" />
<glyph unicode="&#xb4;" horiz-adv-x="681" d="M180 1098l189 317h159l-256 -317h-92z" />
<glyph unicode="&#xb5;" horiz-adv-x="1130" d="M193 -434v1403h120v-488q0 -201 72 -293t184 -92q116 0 187 94.5t71 288.5v490h121v-969h-117v121h-4q-54 -77 -114.5 -111.5t-143.5 -34.5q-79 0 -137 32.5t-115 107.5h-4v-549h-120z" />
<glyph unicode="&#xb6;" horiz-adv-x="1265" d="M70 973q0 187 126.5 302.5t348.5 115.5h678v-148h-181v-1677h-141v1677h-252v-1677h-141v983q-206 3 -322 124.5t-116 299.5z" />
<glyph unicode="&#xb7;" horiz-adv-x="598" d="M223 578v204h152v-204h-152z" />
<glyph unicode="&#xb8;" horiz-adv-x="681" d="M168 -354q44 -2 80.5 1.5t67.5 14t48 32t17 52.5q0 72 -115 84l31 164h74l-15 -78q66 -9 104 -52t38 -106q0 -90 -75.5 -138t-207.5 -48h-47v74z" />
<glyph unicode="&#xb9;" horiz-adv-x="667" d="M168 680v70h115v581h-115v70h215v-651h113v-70h-328z" />
<glyph unicode="&#xba;" horiz-adv-x="737" d="M51 1106q0 131 91 219t227 88q135 0 226 -88t91 -219q0 -130 -90.5 -218.5t-224.5 -88.5q-138 0 -229 88t-91 219zM137 1106q0 -103 66.5 -169.5t167.5 -66.5q98 0 163.5 67.5t65.5 168.5t-65.5 168t-163.5 67q-101 0 -167.5 -67t-66.5 -168z" />
<glyph unicode="&#xbb;" horiz-adv-x="966" d="M31 0l305 487l-305 490h133l311 -490l-311 -487h-133zM465 0l305 487l-305 490h133l311 -490l-311 -487h-133z" />
<glyph unicode="&#xbc;" horiz-adv-x="1796" d="M168 1331v70h215v-651h115v-70h-328v70h113v581h-115zM242 0l1011 1391h84l-1011 -1391h-84zM909 260l346 467h88v-459h134v-63h-134v-137h74v-68h-256v68h88v137h-303q-8 34 -37 55zM1006 268h243v326h-4z" />
<glyph unicode="&#xbd;" horiz-adv-x="1796" d="M168 680v70h115v581h-115v70h215v-651h113v-70h-328zM242 0l1011 1391h84l-1011 -1391h-84zM1018 0q0 153 131 274q40 38 97.5 74t94.5 56.5t65 55t28 77.5q0 60 -40 94.5t-106 34.5q-79 0 -120.5 -49t-34.5 -146h-95q-13 119 58 190.5t192 71.5q110 0 177 -53.5 t67 -142.5q0 -49 -18.5 -85.5t-52.5 -62t-70 -46t-84.5 -50.5t-83.5 -62q-87 -81 -105 -157h330l4 168h90l-8 -242h-516z" />
<glyph unicode="&#xbe;" horiz-adv-x="1796" d="M127 918h94q9 -88 57.5 -133.5t133.5 -45.5q79 0 127.5 39.5t48.5 104.5q0 72 -70 113t-178 24v72q90 -13 147.5 25.5t57.5 103.5q0 55 -38.5 90t-100.5 35q-66 0 -101.5 -38t-34.5 -110h-100q2 100 64 157.5t169 57.5q106 0 173 -54t67 -140q0 -105 -106 -158 q77 -26 113 -69t36 -109q0 -94 -78 -153.5t-200 -59.5q-126 0 -202 66.5t-79 181.5zM401 0l1014 1391h84l-1012 -1391h-86zM1069 260l346 467h90v-459h131v-63h-131v-137h72v-68h-256v68h90v137h-303q-11 38 -39 55zM1167 268h244v326h-4z" />
<glyph unicode="&#xbf;" horiz-adv-x="929" d="M82 -61q0 68 22.5 132t66 117.5t118 85t168.5 27.5l24 291h64l33 -404l-15 -6q-50 5 -100 5t-95.5 -17t-81 -44.5t-56.5 -77.5t-21 -116q0 -116 75.5 -191t196.5 -75q124 0 196 77t71 210h120q4 -124 -49 -215.5t-141 -136.5t-197 -45q-178 0 -288.5 107t-110.5 276z M440 764v205h150v-205h-150z" />
<glyph unicode="&#xc0;" horiz-adv-x="1366" d="M-39 0v115h174l408 1167h-172v109h628v-109h-172l412 -1167h168v-115h-483v115h174l-142 403h-544l-138 -403h179v-115h-492zM451 629h469l-226 671h-16zM498 1833h159l187 -317h-90z" />
<glyph unicode="&#xc1;" horiz-adv-x="1366" d="M-39 0v115h174l408 1167h-172v109h628v-109h-172l412 -1167h168v-115h-483v115h174l-142 403h-544l-138 -403h179v-115h-492zM451 629h469l-226 671h-16zM524 1516l189 317h159l-256 -317h-92z" />
<glyph unicode="&#xc2;" horiz-adv-x="1366" d="M-39 0v115h174l408 1167h-172v109h628v-109h-172l412 -1167h168v-115h-483v115h174l-142 403h-544l-138 -403h179v-115h-492zM381 1522l223 301h146l237 -301h-94l-217 198l-205 -198h-90zM451 629h469l-226 671h-16z" />
<glyph unicode="&#xc3;" horiz-adv-x="1366" d="M-39 0v115h174l408 1167h-172v109h628v-109h-172l412 -1167h168v-115h-483v115h174l-142 403h-544l-138 -403h179v-115h-492zM354 1573q21 103 68 154t113 51q57 0 155 -54q96 -51 150 -51q76 0 106 101h70q-17 -95 -67.5 -150t-121.5 -55q-59 0 -159 53q-34 19 -50 27 t-43 17t-49 9q-75 0 -102 -102h-70zM451 629h469l-226 671h-16z" />
<glyph unicode="&#xc4;" horiz-adv-x="1366" d="M-39 0v115h174l408 1167h-172v109h628v-109h-172l412 -1167h168v-115h-483v115h174l-142 403h-544l-138 -403h179v-115h-492zM424 1671q0 35 24 58.5t58 23.5t58 -23.5t24 -58.5q0 -34 -24 -58t-58 -24t-58 24t-24 58zM451 629h469l-226 671h-16zM780 1671q0 35 24 58.5 t58 23.5t58 -23.5t24 -58.5q0 -34 -24 -58t-58 -24t-58 24t-24 58z" />
<glyph unicode="&#xc5;" horiz-adv-x="1366" d="M-39 0v115h174l408 1167h-172v109h628v-109h-172l412 -1167h168v-115h-483v115h174l-142 403h-544l-138 -403h179v-115h-492zM451 629h469l-226 671h-16zM494 1671q0 80 55.5 135.5t134.5 55.5q78 0 134 -56t56 -135q0 -78 -56 -134t-134 -56q-79 0 -134.5 56t-55.5 134z M559 1671q0 -51 36.5 -88t88.5 -37q51 0 88 37t37 88q0 52 -37 88.5t-88 36.5q-52 0 -88.5 -36t-36.5 -89z" />
<glyph unicode="&#xc6;" horiz-adv-x="1921" d="M-123 0v115h143l631 1161h-227v115h1407v-359h-115v244h-698v-504h569v-113h-569v-544h698v250h115v-365h-1180v115h228v544h-420l-299 -544h159v-115h-442zM516 772h363v504h-88z" />
<glyph unicode="&#xc7;" horiz-adv-x="1542" d="M117 692q0 168 54.5 305.5t148 227.5t217 139t264.5 49q150 0 280.5 -57t218.5 -160h5v195h116v-445h-118q-24 107 -103 187t-181 118.5t-210 38.5q-239 0 -393 -166t-154 -424q0 -260 156.5 -429t398.5 -169q190 0 327 105t208 315l114 -63q-67 -225 -234 -349.5 t-407 -129.5h-61l-8 -50q64 -9 101.5 -51.5t37.5 -105.5q0 -83 -62 -130t-174 -55q-56 -5 -94 -2v76q60 -4 106.5 3t77.5 31t31 64q0 38 -27 58t-87 26l26 144q-261 37 -418 228t-157 476z" />
<glyph unicode="&#xc8;" horiz-adv-x="1249" d="M37 0v115h180v1161h-180v115h1126v-359h-116v244h-691v-506h562v-115h-562v-540h691v250h116v-365h-1126zM438 1833h160l186 -317h-90z" />
<glyph unicode="&#xc9;" horiz-adv-x="1249" d="M37 0v115h180v1161h-180v115h1126v-359h-116v244h-691v-506h562v-115h-562v-540h691v250h116v-365h-1126zM465 1516l188 317h160l-256 -317h-92z" />
<glyph unicode="&#xca;" horiz-adv-x="1249" d="M37 0v115h180v1161h-180v115h1126v-359h-116v244h-691v-506h562v-115h-562v-540h691v250h116v-365h-1126zM322 1522l223 301h145l238 -301h-94l-218 198l-204 -198h-90z" />
<glyph unicode="&#xcb;" horiz-adv-x="1249" d="M37 0v115h180v1161h-180v115h1126v-359h-116v244h-691v-506h562v-115h-562v-540h691v250h116v-365h-1126zM365 1671q0 35 23.5 58.5t57.5 23.5t58 -23.5t24 -58.5q0 -34 -24 -58t-58 -24t-57.5 24t-23.5 58zM721 1671q0 35 24 58.5t58 23.5t58 -23.5t24 -58.5 q0 -34 -24 -58t-58 -24t-58 24t-24 58z" />
<glyph unicode="&#xcc;" horiz-adv-x="593" d="M57 0v115h168v1161h-168v115h478v-115h-170v-1161h170v-115h-478zM111 1833h157l189 -317h-92z" />
<glyph unicode="&#xcd;" horiz-adv-x="593" d="M57 0v115h168v1161h-168v115h478v-115h-170v-1161h170v-115h-478zM137 1516l187 317h159l-256 -317h-90z" />
<glyph unicode="&#xce;" horiz-adv-x="593" d="M-6 1522l221 301h147l238 -301h-94l-217 198l-207 -198h-88zM57 0v115h168v1161h-168v115h478v-115h-170v-1161h170v-115h-478z" />
<glyph unicode="&#xcf;" horiz-adv-x="593" d="M37 1671q0 35 24 58.5t58 23.5t58 -23.5t24 -58.5q0 -34 -24 -58t-58 -24t-58 24t-24 58zM57 0v115h168v1161h-168v115h478v-115h-170v-1161h170v-115h-478zM393 1671q0 35 24 58.5t58 23.5t58 -23.5t24 -58.5q0 -34 -24 -58t-58 -24t-58 24t-24 58z" />
<glyph unicode="&#xd0;" horiz-adv-x="1462" d="M20 0v115h193v524h-193v115h193v522h-193v115h580q197 0 339.5 -44t238.5 -145q91 -94 137.5 -223t46.5 -270q0 -339 -197 -539q-89 -89 -224.5 -129.5t-336.5 -40.5h-584zM352 115h258q321 0 461 147q150 159 150 443q0 122 -37 231t-111 184q-84 86 -196.5 121 t-268.5 35h-256v-522h398v-115h-398v-524z" />
<glyph unicode="&#xd1;" horiz-adv-x="1456" d="M16 0v115h191v1161h-191v115h369l745 -1188h5v1073h-195v115h500v-115h-189v-1292h-137l-786 1253h-4v-1122h196v-115h-504zM397 1573q21 103 68.5 154t114.5 51q57 0 155 -54q93 -51 148 -51q74 0 108 101h68q-15 -94 -65 -149.5t-122 -55.5q-59 0 -159 53 q-96 53 -142 53q-75 0 -102 -102h-72z" />
<glyph unicode="&#xd2;" horiz-adv-x="1611" d="M102 696q0 154 52.5 287t145 227.5t224 148.5t283.5 54q201 0 361.5 -92t250.5 -256t90 -369q0 -153 -52.5 -286t-144 -227.5t-220 -148.5t-275.5 -54q-208 0 -371 90.5t-253.5 254t-90.5 371.5zM248 696q0 -257 159 -425.5t400 -168.5t399 168.5t158 425.5t-158 425.5 t-399 168.5t-400 -168.5t-159 -425.5zM618 1833h160l189 -317h-93z" />
<glyph unicode="&#xd3;" horiz-adv-x="1611" d="M102 696q0 154 52.5 287t145 227.5t224 148.5t283.5 54q201 0 361.5 -92t250.5 -256t90 -369q0 -153 -52.5 -286t-144 -227.5t-220 -148.5t-275.5 -54q-208 0 -371 90.5t-253.5 254t-90.5 371.5zM248 696q0 -257 159 -425.5t400 -168.5t399 168.5t158 425.5t-158 425.5 t-399 168.5t-400 -168.5t-159 -425.5zM645 1516l189 317h159l-256 -317h-92z" />
<glyph unicode="&#xd4;" horiz-adv-x="1611" d="M102 696q0 154 52.5 287t145 227.5t224 148.5t283.5 54q201 0 361.5 -92t250.5 -256t90 -369q0 -153 -52.5 -286t-144 -227.5t-220 -148.5t-275.5 -54q-208 0 -371 90.5t-253.5 254t-90.5 371.5zM248 696q0 -257 159 -425.5t400 -168.5t399 168.5t158 425.5t-158 425.5 t-399 168.5t-400 -168.5t-159 -425.5zM504 1522l221 301h145l238 -301h-92l-217 198l-207 -198h-88z" />
<glyph unicode="&#xd5;" horiz-adv-x="1611" d="M102 696q0 154 52.5 287t145 227.5t224 148.5t283.5 54q201 0 361.5 -92t250.5 -256t90 -369q0 -153 -52.5 -286t-144 -227.5t-220 -148.5t-275.5 -54q-208 0 -371 90.5t-253.5 254t-90.5 371.5zM248 696q0 -257 159 -425.5t400 -168.5t399 168.5t158 425.5t-158 425.5 t-399 168.5t-400 -168.5t-159 -425.5zM475 1573q42 205 180 205q56 0 158 -54q93 -51 148 -51q76 0 106 101h70q-15 -94 -65 -149.5t-122 -55.5q-63 0 -159 53q-38 20 -52 27t-41.5 16.5t-48.5 9.5q-78 0 -102 -102h-72z" />
<glyph unicode="&#xd6;" horiz-adv-x="1611" d="M102 696q0 154 52.5 287t145 227.5t224 148.5t283.5 54q201 0 361.5 -92t250.5 -256t90 -369q0 -153 -52.5 -286t-144 -227.5t-220 -148.5t-275.5 -54q-208 0 -371 90.5t-253.5 254t-90.5 371.5zM248 696q0 -257 159 -425.5t400 -168.5t399 168.5t158 425.5t-158 425.5 t-399 168.5t-400 -168.5t-159 -425.5zM547 1671q0 35 23 58.5t57 23.5q35 0 58.5 -23.5t23.5 -58.5q0 -34 -23.5 -58t-58.5 -24q-34 0 -57 24t-23 58zM903 1671q0 35 23 58.5t57 23.5q35 0 58.5 -23.5t23.5 -58.5q0 -34 -23.5 -58t-58.5 -24q-34 0 -57 24t-23 58z" />
<glyph unicode="&#xd7;" horiz-adv-x="1368" d="M190 246l416 413l-416 416l78 78l414 -416l418 416l76 -78l-414 -416l414 -413l-78 -80l-414 416l-416 -416z" />
<glyph unicode="&#xd8;" horiz-adv-x="1611" d="M102 696q0 140 47 268t133 228.5t222 160.5t301 60q134 0 236 -34t210 -115l123 141l68 -57l-127 -144q194 -191 194 -506q0 -111 -28.5 -215t-86.5 -195.5t-140.5 -160t-198 -108t-250.5 -39.5q-145 0 -245.5 33.5t-194.5 111.5l-123 -137l-66 55l123 141 q-197 206 -197 512zM248 692q0 -122 33 -216.5t108 -188.5l772 876q-89 70 -168 98.5t-184 28.5q-249 0 -405 -167t-156 -431zM455 225q140 -123 344 -123q114 0 209.5 36.5t160 96.5t109.5 138.5t65.5 161t20.5 165.5q0 247 -137 402z" />
<glyph unicode="&#xd9;" horiz-adv-x="1339" d="M12 1276v115h490v-115h-174v-868q0 -156 89 -233t247 -77q171 0 258.5 74t87.5 236v868h-172v115h489v-115h-178v-868q0 -105 -33 -185t-82 -125t-115.5 -72.5t-123 -36.5t-115.5 -9q-109 0 -197 24.5t-155 75t-103.5 134.5t-36.5 196v866h-176zM483 1833h160l188 -317 h-92z" />
<glyph unicode="&#xda;" horiz-adv-x="1339" d="M12 1276v115h490v-115h-174v-868q0 -156 89 -233t247 -77q171 0 258.5 74t87.5 236v868h-172v115h489v-115h-178v-868q0 -105 -33 -185t-82 -125t-115.5 -72.5t-123 -36.5t-115.5 -9q-109 0 -197 24.5t-155 75t-103.5 134.5t-36.5 196v866h-176zM510 1516l188 317h160 l-256 -317h-92z" />
<glyph unicode="&#xdb;" horiz-adv-x="1339" d="M12 1276v115h490v-115h-174v-868q0 -156 89 -233t247 -77q171 0 258.5 74t87.5 236v868h-172v115h489v-115h-178v-868q0 -105 -33 -185t-82 -125t-115.5 -72.5t-123 -36.5t-115.5 -9q-109 0 -197 24.5t-155 75t-103.5 134.5t-36.5 196v866h-176zM369 1522l221 301h145 l238 -301h-92l-217 198l-207 -198h-88z" />
<glyph unicode="&#xdc;" horiz-adv-x="1339" d="M12 1276v115h490v-115h-174v-868q0 -156 89 -233t247 -77q171 0 258.5 74t87.5 236v868h-172v115h489v-115h-178v-868q0 -105 -33 -185t-82 -125t-115.5 -72.5t-123 -36.5t-115.5 -9q-109 0 -197 24.5t-155 75t-103.5 134.5t-36.5 196v866h-176zM412 1671q0 35 23 58.5 t57 23.5q35 0 58 -23.5t23 -58.5q0 -34 -23 -58t-58 -24q-34 0 -57 24t-23 58zM768 1671q0 35 23.5 58.5t58.5 23.5q34 0 57 -23.5t23 -58.5q0 -34 -23 -58t-57 -24q-35 0 -58.5 24t-23.5 58z" />
<glyph unicode="&#xdd;" horiz-adv-x="1259" d="M-35 1276v115h516v-115h-180l346 -533l340 533h-178v115h485v-115h-172l-415 -647v-514h196v-115h-528v115h190v514l-422 647h-178zM471 1516l188 317h160l-256 -317h-92z" />
<glyph unicode="&#xde;" horiz-adv-x="1142" d="M35 0v115h182v1161h-182v115h508v-115h-187v-170h285q123 0 214.5 -33.5t143.5 -91.5t76.5 -128t24.5 -151q0 -63 -14.5 -121t-48.5 -112.5t-85 -94.5t-129.5 -64.5t-175.5 -24.5h-291v-170h187v-115h-508zM356 397h254q348 0 348 291q0 154 -82.5 228.5t-254.5 74.5 h-265v-594z" />
<glyph unicode="&#xdf;" horiz-adv-x="1275" d="M39 0v113h174v886q0 201 113 308q114 108 319 108q189 0 303.5 -93t114.5 -245q0 -97 -48 -166.5t-138 -101.5v-4q147 -28 230 -134t83 -265q0 -186 -107.5 -303t-279.5 -117q-75 0 -131 20v111q22 -16 57 -19q35 -6 64 -6q105 0 185.5 82t80.5 227q0 70 -19 128.5 t-61 108.5t-120.5 78.5t-186.5 28.5v103q135 -5 197.5 64t62.5 165q0 101 -78.5 165.5t-208.5 64.5q-48 0 -89.5 -8t-82 -29t-68.5 -54.5t-45.5 -87.5t-17.5 -124v-891h154v-113h-457z" />
<glyph unicode="&#xe0;" horiz-adv-x="1056" d="M100 276q0 132 101.5 218t255.5 86q138 0 286 -80v198q0 199 -245 199q-199 0 -275 -152l-106 27q57 117 152 170t243 53q185 0 273.5 -75.5t88.5 -204.5v-602h160v-113h-284v133q-178 -147 -347 -147q-126 0 -214.5 84.5t-88.5 205.5zM229 272q0 -82 57 -135t146 -53 q78 0 165.5 41.5t145.5 107.5v160q-142 88 -268 88q-109 0 -177.5 -58.5t-68.5 -150.5zM342 1415h160l186 -317h-90z" />
<glyph unicode="&#xe1;" horiz-adv-x="1056" d="M100 276q0 132 101.5 218t255.5 86q138 0 286 -80v198q0 199 -245 199q-199 0 -275 -152l-106 27q57 117 152 170t243 53q185 0 273.5 -75.5t88.5 -204.5v-602h160v-113h-284v133q-178 -147 -347 -147q-126 0 -214.5 84.5t-88.5 205.5zM229 272q0 -82 57 -135t146 -53 q78 0 165.5 41.5t145.5 107.5v160q-142 88 -268 88q-109 0 -177.5 -58.5t-68.5 -150.5zM369 1098l188 317h160l-256 -317h-92z" />
<glyph unicode="&#xe2;" horiz-adv-x="1056" d="M100 276q0 132 101.5 218t255.5 86q138 0 286 -80v198q0 199 -245 199q-199 0 -275 -152l-106 27q57 117 152 170t243 53q185 0 273.5 -75.5t88.5 -204.5v-602h160v-113h-284v133q-178 -147 -347 -147q-126 0 -214.5 84.5t-88.5 205.5zM225 1104l224 301h145l237 -301 h-94l-217 199l-205 -199h-90zM229 272q0 -82 57 -135t146 -53q78 0 165.5 41.5t145.5 107.5v160q-142 88 -268 88q-109 0 -177.5 -58.5t-68.5 -150.5z" />
<glyph unicode="&#xe3;" horiz-adv-x="1056" d="M100 276q0 132 101.5 218t255.5 86q138 0 286 -80v198q0 199 -245 199q-199 0 -275 -152l-106 27q57 117 152 170t243 53q185 0 273.5 -75.5t88.5 -204.5v-602h160v-113h-284v133q-178 -147 -347 -147q-126 0 -214.5 84.5t-88.5 205.5zM199 1155q42 205 180 205 q60 0 156 -53q36 -19 52.5 -27t45 -17.5t51.5 -9.5q77 0 107 103h69q-17 -95 -67 -150t-121 -55q-60 0 -160 53q-35 19 -50 27t-42 17t-49 9q-76 0 -103 -102h-69zM229 272q0 -82 57 -135t146 -53q78 0 165.5 41.5t145.5 107.5v160q-142 88 -268 88q-109 0 -177.5 -58.5 t-68.5 -150.5z" />
<glyph unicode="&#xe4;" horiz-adv-x="1056" d="M100 276q0 132 101.5 218t255.5 86q138 0 286 -80v198q0 199 -245 199q-199 0 -275 -152l-106 27q57 117 152 170t243 53q185 0 273.5 -75.5t88.5 -204.5v-602h160v-113h-284v133q-178 -147 -347 -147q-126 0 -214.5 84.5t-88.5 205.5zM229 272q0 -82 57 -135t146 -53 q78 0 165.5 41.5t145.5 107.5v160q-142 88 -268 88q-109 0 -177.5 -58.5t-68.5 -150.5zM268 1253q0 34 24 58t58 24t58 -24t24 -58t-24 -58t-58 -24t-58 24t-24 58zM625 1253q0 34 24 58t58 24t57.5 -24t23.5 -58t-23.5 -58t-57.5 -24t-58 24t-24 58z" />
<glyph unicode="&#xe5;" horiz-adv-x="1056" d="M100 276q0 132 101.5 218t255.5 86q138 0 286 -80v198q0 199 -245 199q-199 0 -275 -152l-106 27q57 117 152 170t243 53q185 0 273.5 -75.5t88.5 -204.5v-602h160v-113h-284v133q-178 -147 -347 -147q-126 0 -214.5 84.5t-88.5 205.5zM229 272q0 -82 57 -135t146 -53 q78 0 165.5 41.5t145.5 107.5v160q-142 88 -268 88q-109 0 -177.5 -58.5t-68.5 -150.5zM338 1253q0 80 55.5 135.5t134.5 55.5q78 0 134.5 -56t56.5 -135t-56.5 -134.5t-134.5 -55.5q-80 0 -135 55.5t-55 134.5zM403 1253q0 -51 36.5 -88t88.5 -37q51 0 88 37t37 88 q0 52 -37 88.5t-88 36.5q-52 0 -88.5 -36t-36.5 -89z" />
<glyph unicode="&#xe6;" horiz-adv-x="1781" d="M104 272q0 140 103 221.5t254 81.5q145 0 289 -86v207q0 197 -250 197q-197 0 -273 -152l-110 31q47 106 152 164.5t247 58.5q275 0 342 -202q66 98 162.5 150t212.5 52q95 0 179.5 -35.5t150 -101.5t103.5 -170t38 -233h-834q13 -168 117.5 -269.5t263.5 -101.5 q219 0 359 190l106 -51q-66 -105 -184.5 -178.5t-276.5 -73.5q-269 0 -419 217q-186 -217 -408 -217q-141 0 -232.5 85t-91.5 216zM236 270q0 -86 59 -142t149 -56q77 0 158.5 40.5t147.5 110.5v162q-157 92 -275 92q-104 0 -171.5 -58t-67.5 -149zM879 559h694 q-10 142 -110 234t-234 92q-130 0 -231 -88.5t-119 -237.5z" />
<glyph unicode="&#xe7;" horiz-adv-x="1050" d="M80 477q0 217 135 363.5t334 146.5q189 0 297 -129h4v111h111v-369h-111q-6 122 -90 197q-80 71 -205 71q-151 0 -245.5 -106.5t-94.5 -276.5q0 -178 96 -287.5t252 -109.5q228 0 324 221l106 -47q-55 -135 -165 -211.5t-253 -79.5h-28l-12 -55q66 -9 103.5 -52 t37.5 -106q0 -89 -72.5 -136.5t-200.5 -49.5h-57v74q44 -2 80.5 1.5t68 14t49 32t17.5 52.5q0 72 -115 84l29 152q-181 29 -288 166.5t-107 328.5z" />
<glyph unicode="&#xe8;" horiz-adv-x="1142" d="M80 483q0 224 143 368t355 144q214 0 351 -147t140 -393h-854q4 -161 115.5 -268t271.5 -107q107 0 201.5 51t159.5 145l106 -49q-72 -120 -198.5 -188t-278.5 -68q-224 0 -368 144t-144 368zM217 559h719q-26 153 -124 241.5t-241 88.5q-138 0 -233 -89t-121 -241z M385 1415h160l186 -317h-90z" />
<glyph unicode="&#xe9;" horiz-adv-x="1142" d="M80 483q0 224 143 368t355 144q214 0 351 -147t140 -393h-854q4 -161 115.5 -268t271.5 -107q107 0 201.5 51t159.5 145l106 -49q-72 -120 -198.5 -188t-278.5 -68q-224 0 -368 144t-144 368zM217 559h719q-26 153 -124 241.5t-241 88.5q-138 0 -233 -89t-121 -241z M412 1098l188 317h160l-256 -317h-92z" />
<glyph unicode="&#xea;" horiz-adv-x="1142" d="M80 483q0 224 143 368t355 144q214 0 351 -147t140 -393h-854q4 -161 115.5 -268t271.5 -107q107 0 201.5 51t159.5 145l106 -49q-72 -120 -198.5 -188t-278.5 -68q-224 0 -368 144t-144 368zM217 559h719q-26 153 -124 241.5t-241 88.5q-138 0 -233 -89t-121 -241z M268 1104l224 301h145l237 -301h-94l-217 199l-205 -199h-90z" />
<glyph unicode="&#xeb;" horiz-adv-x="1142" d="M80 483q0 224 143 368t355 144q214 0 351 -147t140 -393h-854q4 -161 115.5 -268t271.5 -107q107 0 201.5 51t159.5 145l106 -49q-72 -120 -198.5 -188t-278.5 -68q-224 0 -368 144t-144 368zM217 559h719q-26 153 -124 241.5t-241 88.5q-138 0 -233 -89t-121 -241z M311 1253q0 34 24 58t58 24t58 -24t24 -58t-24 -58t-58 -24t-58 24t-24 58zM668 1253q0 34 24 58t58 24t57.5 -24t23.5 -58t-23.5 -58t-57.5 -24t-58 24t-24 58z" />
<glyph unicode="&#xec;" d="M12 1415h160l188 -317h-92zM49 0v113h168v743h-168v113h297v-856h160v-113h-457z" />
<glyph unicode="&#xed;" d="M49 0v113h168v743h-168v113h297v-856h160v-113h-457zM109 1098l188 317h160l-256 -317h-92z" />
<glyph unicode="&#xee;" d="M-35 1104l223 301h146l237 -301h-94l-217 199l-205 -199h-90zM49 0v113h168v743h-168v113h297v-856h160v-113h-457z" />
<glyph unicode="&#xef;" d="M8 1253q0 34 24 58t58 24t58 -24t24 -58t-24 -58t-58 -24t-58 24t-24 58zM49 0v113h168v743h-168v113h297v-856h160v-113h-457zM365 1253q0 34 23.5 58t57.5 24t58 -24t24 -58t-24 -58t-58 -24t-57.5 24t-23.5 58z" />
<glyph unicode="&#xf0;" horiz-adv-x="1159" d="M90 483q0 217 141 364.5t338 147.5q90 0 172 -37t142 -104l4 4q-80 196 -252 326l-268 -119l-84 61l266 119q-105 71 -217 113l135 59q140 -62 213 -114l256 114l86 -61l-260 -115q151 -130 229 -307.5t78 -366.5q0 -143 -37 -257.5t-103 -188t-153.5 -112t-191.5 -38.5 q-217 0 -355.5 147t-138.5 365zM223 483q0 -169 101.5 -281t253.5 -112q155 0 255.5 115.5t100.5 298.5q0 154 -98.5 263.5t-257.5 109.5q-150 0 -252.5 -111.5t-102.5 -282.5z" />
<glyph unicode="&#xf1;" horiz-adv-x="1110" d="M25 856v113h305v-142q194 156 356 156q114 0 187 -68.5t73 -189.5v-612h158v-113h-287v684q0 182 -149 182q-73 0 -164 -42.5t-174 -116.5v-594h159v-113h-462v113h174v743h-176zM225 1155q21 103 68 154t113 51q59 0 155 -53q37 -20 52.5 -27.5t44.5 -17t53 -9.5 q76 0 106 103h70q-17 -95 -67.5 -150t-121.5 -55q-59 0 -159 53q-34 19 -50 27t-43 17t-49 9q-75 0 -102 -102h-70z" />
<glyph unicode="&#xf2;" horiz-adv-x="1142" d="M82 483q0 218 140 365t349 147t349.5 -147t140.5 -365t-140.5 -365t-349.5 -147t-349 147t-140 365zM217 483q0 -169 100.5 -281t253.5 -112q152 0 254.5 112.5t102.5 280.5q0 169 -102.5 281.5t-254.5 112.5q-153 0 -253.5 -112.5t-100.5 -281.5zM385 1415h160l186 -317 h-90z" />
<glyph unicode="&#xf3;" horiz-adv-x="1142" d="M82 483q0 218 140 365t349 147t349.5 -147t140.5 -365t-140.5 -365t-349.5 -147t-349 147t-140 365zM217 483q0 -169 100.5 -281t253.5 -112q152 0 254.5 112.5t102.5 280.5q0 169 -102.5 281.5t-254.5 112.5q-153 0 -253.5 -112.5t-100.5 -281.5zM412 1098l188 317h160 l-256 -317h-92z" />
<glyph unicode="&#xf4;" horiz-adv-x="1142" d="M82 483q0 218 140 365t349 147t349.5 -147t140.5 -365t-140.5 -365t-349.5 -147t-349 147t-140 365zM217 483q0 -169 100.5 -281t253.5 -112q152 0 254.5 112.5t102.5 280.5q0 169 -102.5 281.5t-254.5 112.5q-153 0 -253.5 -112.5t-100.5 -281.5zM268 1104l224 301h145 l237 -301h-94l-217 199l-205 -199h-90z" />
<glyph unicode="&#xf5;" horiz-adv-x="1142" d="M82 483q0 218 140 365t349 147t349.5 -147t140.5 -365t-140.5 -365t-349.5 -147t-349 147t-140 365zM217 483q0 -169 100.5 -281t253.5 -112q152 0 254.5 112.5t102.5 280.5q0 169 -102.5 281.5t-254.5 112.5q-153 0 -253.5 -112.5t-100.5 -281.5zM242 1155 q42 205 180 205q60 0 156 -53q36 -19 52.5 -27t45 -17.5t51.5 -9.5q77 0 107 103h69q-17 -95 -67 -150t-121 -55q-60 0 -160 53q-35 19 -50 27t-42 17t-49 9q-76 0 -103 -102h-69z" />
<glyph unicode="&#xf6;" horiz-adv-x="1142" d="M82 483q0 218 140 365t349 147t349.5 -147t140.5 -365t-140.5 -365t-349.5 -147t-349 147t-140 365zM217 483q0 -169 100.5 -281t253.5 -112q152 0 254.5 112.5t102.5 280.5q0 169 -102.5 281.5t-254.5 112.5q-153 0 -253.5 -112.5t-100.5 -281.5zM311 1253q0 34 24 58 t58 24t58 -24t24 -58t-24 -58t-58 -24t-58 24t-24 58zM668 1253q0 34 24 58t58 24t57.5 -24t23.5 -58t-23.5 -58t-57.5 -24t-58 24t-24 58z" />
<glyph unicode="&#xf7;" horiz-adv-x="1368" d="M143 606v111h1080v-111h-1080zM608 246q0 31 21.5 53.5t52.5 22.5t52.5 -22.5t21.5 -53.5q0 -29 -21.5 -50.5t-52.5 -21.5t-52.5 21.5t-21.5 50.5zM608 1075q0 30 22 52t52 22t52 -22t22 -52q0 -31 -21.5 -52.5t-52.5 -21.5t-52.5 21.5t-21.5 52.5z" />
<glyph unicode="&#xf8;" horiz-adv-x="1142" d="M84 487q0 215 140 361.5t347 146.5q176 0 303 -102l130 147l55 -51l-129 -149q133 -151 133 -357q0 -218 -140.5 -365t-349.5 -147q-170 0 -301 103l-125 -146l-61 49l129 150q-62 68 -96.5 163t-34.5 197zM217 485q0 -151 82 -262l494 574q-96 80 -220 80 q-153 0 -254.5 -112t-101.5 -280zM354 168q100 -78 219 -78q152 0 253.5 112t101.5 279q0 149 -82 260z" />
<glyph unicode="&#xf9;" horiz-adv-x="1122" d="M33 856v113h291v-707q0 -78 37 -120t110 -42q79 0 171.5 44t166.5 118v594h-170v113h299v-856h166v-113h-295v131q-177 -145 -365 -145q-117 0 -183 67t-66 187v616h-162zM313 1415h160l186 -317h-90z" />
<glyph unicode="&#xfa;" horiz-adv-x="1122" d="M33 856v113h291v-707q0 -78 37 -120t110 -42q79 0 171.5 44t166.5 118v594h-170v113h299v-856h166v-113h-295v131q-177 -145 -365 -145q-117 0 -183 67t-66 187v616h-162zM401 1098l189 317h160l-256 -317h-93z" />
<glyph unicode="&#xfb;" horiz-adv-x="1122" d="M33 856v113h291v-707q0 -78 37 -120t110 -42q79 0 171.5 44t166.5 118v594h-170v113h299v-856h166v-113h-295v131q-177 -145 -365 -145q-117 0 -183 67t-66 187v616h-162zM258 1104l223 301h146l237 -301h-94l-217 199l-205 -199h-90z" />
<glyph unicode="&#xfc;" horiz-adv-x="1122" d="M33 856v113h291v-707q0 -78 37 -120t110 -42q79 0 171.5 44t166.5 118v594h-170v113h299v-856h166v-113h-295v131q-177 -145 -365 -145q-117 0 -183 67t-66 187v616h-162zM301 1253q0 34 24 58t58 24t58 -24t24 -58t-24 -58t-58 -24t-58 24t-24 58zM657 1253q0 34 24 58 t58 24t58 -24t24 -58t-24 -58t-58 -24t-58 24t-24 58z" />
<glyph unicode="&#xfd;" horiz-adv-x="1105" d="M8 856v113h436v-113h-145l270 -672l256 672h-147v113h420v-113h-146l-491 -1290h-285v112h201l131 347l-340 831h-160zM393 1098l187 317h159l-256 -317h-90z" />
<glyph unicode="&#xfe;" horiz-adv-x="1232" d="M0 -322h176v1600h-166v113h297v-613h4q57 96 153.5 150.5t211.5 54.5q203 0 338 -143.5t135 -360.5q0 -221 -135 -364.5t-342 -143.5q-117 0 -210.5 52t-152.5 149h-2v-494h178v-112h-485v112zM303 479q0 -171 101.5 -281t259.5 -110q159 0 258.5 109.5t99.5 285.5 q0 169 -102.5 278t-262.5 109q-155 0 -254.5 -110t-99.5 -281z" />
<glyph unicode="&#xff;" horiz-adv-x="1105" d="M8 856v113h436v-113h-145l270 -672l256 672h-147v113h420v-113h-146l-491 -1290h-285v112h201l131 347l-340 831h-160zM293 1253q0 34 24 58t58 24t58 -24t24 -58t-24 -58t-58 -24t-58 24t-24 58zM649 1253q0 34 24 58t58 24t58 -24t24 -58t-24 -58t-58 -24t-58 24 t-24 58z" />
<glyph unicode="&#x152;" horiz-adv-x="2138" d="M96 690q0 62 9.5 125t33.5 133.5t60.5 133t94.5 120t131.5 99t176 66t223.5 24.5h1203v-357h-113v242h-690v-500h559v-114h-559v-547h690v247h113v-362h-1199q-146 0 -268.5 37.5t-207 102.5t-143.5 153.5t-86.5 188t-27.5 208.5zM238 690q0 -267 160 -421t448 -154h237 v1161h-231q-138 0 -246.5 -34t-176.5 -89.5t-112 -133t-61.5 -158t-17.5 -171.5z" />
<glyph unicode="&#x153;" horiz-adv-x="1910" d="M78 485q0 229 135 369.5t334 140.5q134 0 242.5 -68t162.5 -186q62 120 170.5 187t241.5 67q88 0 170 -31.5t152 -93.5t112.5 -169t42.5 -244h-823q6 -168 107 -271.5t259 -103.5q225 0 351 194l106 -49q-73 -126 -192 -191t-269 -65q-288 0 -428 242 q-54 -114 -160.5 -178t-242.5 -64q-211 0 -341 142t-130 372zM211 494q0 -186 91.5 -296t246.5 -110q67 0 126 22t108 67t77.5 123t28.5 181q0 178 -92 284.5t-246 106.5q-145 0 -242.5 -100.5t-97.5 -277.5zM1020 561h682q-12 139 -107.5 232.5t-228.5 93.5 q-138 0 -236.5 -93t-109.5 -233z" />
<glyph unicode="&#x178;" horiz-adv-x="1259" d="M-35 1276v115h516v-115h-180l346 -533l340 533h-178v115h485v-115h-172l-415 -647v-514h196v-115h-528v115h190v514l-422 647h-178zM371 1671q0 35 24 58.5t58 23.5t58 -23.5t24 -58.5q0 -34 -24 -58t-58 -24t-58 24t-24 58zM727 1671q0 35 24 58.5t58 23.5t58 -23.5 t24 -58.5q0 -34 -24 -58t-58 -24t-58 24t-24 58z" />
<glyph unicode="&#x2c6;" horiz-adv-x="681" d="M39 1104l221 301h146l237 -301h-92l-217 199l-207 -199h-88z" />
<glyph unicode="&#x2dc;" horiz-adv-x="681" d="M10 1155q42 205 180 205q58 0 158 -53q98 -54 148 -54q73 0 108 103h68q-15 -94 -65 -149.5t-122 -55.5q-63 0 -159 53q-38 20 -52 27t-41.5 16.5t-48.5 9.5q-75 0 -102 -102h-72z" />
<glyph unicode="&#x2000;" horiz-adv-x="931" />
<glyph unicode="&#x2001;" horiz-adv-x="1862" />
<glyph unicode="&#x2002;" horiz-adv-x="931" />
<glyph unicode="&#x2003;" horiz-adv-x="1862" />
<glyph unicode="&#x2004;" horiz-adv-x="620" />
<glyph unicode="&#x2005;" horiz-adv-x="465" />
<glyph unicode="&#x2006;" horiz-adv-x="310" />
<glyph unicode="&#x2007;" horiz-adv-x="310" />
<glyph unicode="&#x2008;" horiz-adv-x="232" />
<glyph unicode="&#x2009;" horiz-adv-x="372" />
<glyph unicode="&#x200a;" horiz-adv-x="103" />
<glyph unicode="&#x2010;" horiz-adv-x="710" d="M68 426v113h573v-113h-573z" />
<glyph unicode="&#x2011;" horiz-adv-x="710" d="M68 426v113h573v-113h-573z" />
<glyph unicode="&#x2012;" horiz-adv-x="710" d="M68 426v113h573v-113h-573z" />
<glyph unicode="&#x2013;" horiz-adv-x="1024" d="M-12 449v126h1048v-126h-1048z" />
<glyph unicode="&#x2014;" horiz-adv-x="2048" d="M-12 449v126h2072v-126h-2072z" />
<glyph unicode="&#x2018;" d="M193 922v229q0 235 163 240v-82q-48 -3 -65 -41.5t-19 -139.5h70v-206h-149z" />
<glyph unicode="&#x2019;" d="M178 922v82q49 4 65.5 42t18.5 140h-69v205h149v-230q0 -234 -164 -239z" />
<glyph unicode="&#x201a;" d="M178 -182q49 4 65.5 42t18.5 140h-69v205h149v-230q0 -234 -164 -237v80z" />
<glyph unicode="&#x201c;" horiz-adv-x="1003" d="M178 922v229q0 234 164 240v-82q-48 -3 -64.5 -41t-19.5 -140h70v-206h-150zM662 922v229q0 235 163 240v-82q-48 -3 -64.5 -41t-19.5 -140h70v-206h-149z" />
<glyph unicode="&#x201d;" horiz-adv-x="1003" d="M178 922v82q49 4 65.5 42t18.5 140h-69v205h149v-230q0 -233 -164 -239zM662 922v82q49 4 65 42t18 140h-69v205h149v-230q0 -234 -163 -239z" />
<glyph unicode="&#x201e;" horiz-adv-x="1003" d="M176 -182q48 4 64.5 41.5t19.5 140.5h-72v205h150v-230q0 -234 -162 -237v80zM666 -182q48 4 64.5 41.5t19.5 140.5h-72v205h149v-230q0 -234 -161 -237v80z" />
<glyph unicode="&#x2022;" horiz-adv-x="944" d="M223 698q0 103 73 176.5t177 73.5q103 0 176.5 -73.5t73.5 -176.5q0 -104 -73.5 -178t-176.5 -74q-104 0 -177 74t-73 178z" />
<glyph unicode="&#x2026;" horiz-adv-x="2048" d="M266 0v205h152v-205h-152zM948 0v205h152v-205h-152zM1630 0v205h152v-205h-152z" />
<glyph unicode="&#x202f;" horiz-adv-x="372" />
<glyph unicode="&#x2039;" horiz-adv-x="503" d="M39 487l311 490h133l-305 -490l305 -487h-133z" />
<glyph unicode="&#x203a;" horiz-adv-x="503" d="M20 0l306 487l-306 490h134l311 -490l-311 -487h-134z" />
<glyph unicode="&#x205f;" horiz-adv-x="465" />
<glyph unicode="&#x20ac;" horiz-adv-x="1093" d="M37 526v103h129v63q0 54 2 74h-131v104h137q10 84 31.5 160t59.5 147t88 122t121.5 81.5t156.5 30.5q187 0 284 -154h3v136h114v-361h-114q-22 118 -99 195q-82 82 -184 82q-148 0 -238 -144q-71 -120 -92 -295h402v-104h-410q0 -8 -1 -33t-1 -33q0 -9 1 -35.5t1 -35.5 h410v-103h-400q10 -82 33 -155t61.5 -139t101 -105t140.5 -39q110 0 182 82q65 73 105 186l112 -49q-45 -143 -139 -231q-103 -96 -252 -96q-89 0 -164 29.5t-127.5 80t-91.5 121t-61.5 148.5t-32.5 167h-137z" />
<glyph unicode="&#x2122;" horiz-adv-x="1953" d="M229 1294v97h645v-97h-264v-721h-114v721h-267zM967 573v818h168l202 -654h4l205 654h168v-818h-100v717h-4l-230 -717h-84l-223 717h-4v-717h-102z" />
<glyph unicode="&#xe000;" horiz-adv-x="972" d="M0 0v973h973v-973h-973z" />
</font>
</defs>
</svg>
